<svg xmlns="http://www.w3.org/2000/svg" width="1280" height="760" viewBox="0 0 1280 760"><defs><marker id="arrow" viewBox="0 0 10 10" refX="9" refY="5" markerWidth="8" markerHeight="8" orient="auto-start-reverse"><path d="M 0 0 L 10 5 L 0 10 z" fill="#111827"/></marker></defs><rect x="0" y="0" width="1280" height="760" fill="#ffffff"/><text x="640" y="36" text-anchor="middle" font-family="monospace" font-size="22" fill="#111827">TETRAGRAMMATRON PROTOCOL FLOW</text><rect x="80" y="90" width="200" height="90" rx="8" ry="8" fill="#f8fafc" stroke="#1f2937" stroke-width="2"/><text x="180" y="118" text-anchor="middle" font-family="monospace" font-size="16" fill="#111827">Control</text><text x="180" y="142" text-anchor="middle" font-family="monospace" font-size="13" fill="#374151">BoundarySplit: 4</text><rect x="340" y="90" width="200" height="90" rx="8" ry="8" fill="#f8fafc" stroke="#1f2937" stroke-width="2"/><text x="440" y="118" text-anchor="middle" font-family="monospace" font-size="16" fill="#111827">Bridge</text><text x="440" y="142" text-anchor="middle" font-family="monospace" font-size="13" fill="#374151">BridgeLayer: 4</text><rect x="600" y="90" width="200" height="90" rx="8" ry="8" fill="#f8fafc" stroke="#1f2937" stroke-width="2"/><text x="700" y="118" text-anchor="middle" font-family="monospace" font-size="16" fill="#111827">Carrier</text><text x="700" y="142" text-anchor="middle" font-family="monospace" font-size="13" fill="#374151">CarrierLayer: 14</text><rect x="860" y="90" width="200" height="90" rx="8" ry="8" fill="#f8fafc" stroke="#1f2937" stroke-width="2"/><text x="960" y="118" text-anchor="middle" font-family="monospace" font-size="16" fill="#111827">Projection</text><text x="960" y="142" text-anchor="middle" font-family="monospace" font-size="13" fill="#374151">ProjectionOnly: 2</text><line x1="280" y1="135" x2="340" y2="135" stroke="#111827" stroke-width="2" marker-end="url(#arrow)"/><text x="310" y="129" text-anchor="middle" font-family="monospace" font-size="12" fill="#374151">edges: 0</text><line x1="540" y1="135" x2="600" y2="135" stroke="#111827" stroke-width="2" marker-end="url(#arrow)"/><text x="570" y="129" text-anchor="middle" font-family="monospace" font-size="12" fill="#374151">edges: 0</text><line x1="800" y1="135" x2="860" y2="135" stroke="#111827" stroke-width="2" marker-end="url(#arrow)"/><text x="830" y="129" text-anchor="middle" font-family="monospace" font-size="12" fill="#374151">edges: 0</text><rect x="110" y="300" width="220" height="90" rx="8" ry="8" fill="#f8fafc" stroke="#1f2937" stroke-width="2"/><text x="220" y="328" text-anchor="middle" font-family="monospace" font-size="16" fill="#111827">Boundary Split</text><text x="220" y="352" text-anchor="middle" font-family="monospace" font-size="13" fill="#374151">instances: 4</text><rect x="430" y="300" width="220" height="90" rx="8" ry="8" fill="#f8fafc" stroke="#1f2937" stroke-width="2"/><text x="540" y="328" text-anchor="middle" font-family="monospace" font-size="16" fill="#111827">Core Runtime</text><text x="540" y="352" text-anchor="middle" font-family="monospace" font-size="13" fill="#374151">pattern files: 35</text><rect x="750" y="300" width="240" height="90" rx="8" ry="8" fill="#f8fafc" stroke="#1f2937" stroke-width="2"/><text x="870" y="328" text-anchor="middle" font-family="monospace" font-size="16" fill="#111827">Conformance</text><text x="870" y="352" text-anchor="middle" font-family="monospace" font-size="13" fill="#374151">Conformance: 12 / flow: 54</text><rect x="1040" y="300" width="170" height="90" rx="8" ry="8" fill="#f8fafc" stroke="#1f2937" stroke-width="2"/><text x="1125" y="328" text-anchor="middle" font-family="monospace" font-size="16" fill="#111827">Receipts</text><text x="1125" y="352" text-anchor="middle" font-family="monospace" font-size="13" fill="#374151">deterministic</text><line x1="180" y1="180" x2="180" y2="300" stroke="#111827" stroke-width="2" marker-end="url(#arrow)"/><text x="180" y="234" text-anchor="middle" font-family="monospace" font-size="12" fill="#374151">control law</text><line x1="440" y1="180" x2="540" y2="300" stroke="#111827" stroke-width="2" marker-end="url(#arrow)"/><text x="490" y="234" text-anchor="middle" font-family="monospace" font-size="12" fill="#374151">invoke</text><line x1="700" y1="180" x2="850" y2="300" stroke="#111827" stroke-width="2" marker-end="url(#arrow)"/><text x="775" y="234" text-anchor="middle" font-family="monospace" font-size="12" fill="#374151">transport</text><line x1="980" y1="180" x2="1125" y2="300" stroke="#111827" stroke-width="2" marker-end="url(#arrow)"/><text x="1052" y="234" text-anchor="middle" font-family="monospace" font-size="12" fill="#374151">verify</text><text x="640" y="700" text-anchor="middle" font-family="monospace" font-size="13" fill="#374151">All transitions deterministic and verifiable. Projection surfaces cannot upgrade authority.</text></svg>
