<svg xmlns="http://www.w3.org/2000/svg" width="1280" height="760" viewBox="0 0 1280 760"><defs><marker id="arrow" viewBox="0 0 10 10" refX="9" refY="5" markerWidth="8" markerHeight="8" orient="auto-start-reverse"><path d="M 0 0 L 10 5 L 0 10 z" fill="#111827"/></marker></defs><rect x="0" y="0" width="1280" height="760" fill="#ffffff"/><text x="640" y="36" text-anchor="middle" font-family="monospace" font-size="22" fill="#111827">TETRAGRAMMATRON ARCHITECTURE</text><rect x="80" y="90" width="240" height="90" rx="8" ry="8" fill="#f8fafc" stroke="#1f2937" stroke-width="2"/><text x="200" y="118" text-anchor="middle" font-family="monospace" font-size="16" fill="#111827">Control Surface</text><text x="200" y="142" text-anchor="middle" font-family="monospace" font-size="13" fill="#374151">BoundarySplit: 4</text><rect x="400" y="90" width="240" height="90" rx="8" ry="8" fill="#f8fafc" stroke="#1f2937" stroke-width="2"/><text x="520" y="118" text-anchor="middle" font-family="monospace" font-size="16" fill="#111827">Bridge Layer</text><text x="520" y="142" text-anchor="middle" font-family="monospace" font-size="13" fill="#374151">BridgeLayer: 4</text><rect x="720" y="90" width="240" height="90" rx="8" ry="8" fill="#f8fafc" stroke="#1f2937" stroke-width="2"/><text x="840" y="118" text-anchor="middle" font-family="monospace" font-size="16" fill="#111827">Carrier Layer</text><text x="840" y="142" text-anchor="middle" font-family="monospace" font-size="13" fill="#374151">CarrierLayer: 14</text><rect x="1040" y="90" width="180" height="90" rx="8" ry="8" fill="#f8fafc" stroke="#1f2937" stroke-width="2"/><text x="1130" y="118" text-anchor="middle" font-family="monospace" font-size="16" fill="#111827">Projection</text><text x="1130" y="142" text-anchor="middle" font-family="monospace" font-size="13" fill="#374151">ProjectionOnly: 2</text><line x1="320" y1="135" x2="400" y2="135" stroke="#111827" stroke-width="2" marker-end="url(#arrow)"/><line x1="640" y1="135" x2="720" y2="135" stroke="#111827" stroke-width="2" marker-end="url(#arrow)"/><line x1="960" y1="135" x2="1040" y2="135" stroke="#111827" stroke-width="2" marker-end="url(#arrow)"/><rect x="140" y="270" width="240" height="90" rx="8" ry="8" fill="#f8fafc" stroke="#1f2937" stroke-width="2"/><text x="260" y="298" text-anchor="middle" font-family="monospace" font-size="16" fill="#111827">Core</text><text x="260" y="322" text-anchor="middle" font-family="monospace" font-size="13" fill="#374151">domain core: 12</text><rect x="520" y="270" width="300" height="90" rx="8" ry="8" fill="#f8fafc" stroke="#1f2937" stroke-width="2"/><text x="670" y="298" text-anchor="middle" font-family="monospace" font-size="16" fill="#111827">Conformance Surface</text><text x="670" y="322" text-anchor="middle" font-family="monospace" font-size="13" fill="#374151">ConformanceSurface: 12</text><line x1="520" y1="180" x2="520" y2="270" stroke="#111827" stroke-width="2" marker-end="url(#arrow)"/><line x1="820" y1="180" x2="820" y2="270" stroke="#111827" stroke-width="2" marker-end="url(#arrow)"/><rect x="240" y="470" width="800" height="130" rx="8" ry="8" fill="#f8fafc" stroke="#1f2937" stroke-width="2"/><text x="640" y="498" text-anchor="middle" font-family="monospace" font-size="16" fill="#111827">Projection Surfaces</text><text x="640" y="522" text-anchor="middle" font-family="monospace" font-size="13" fill="#374151">advisory-only (domain projection: 2)</text><line x1="640" y1="360" x2="640" y2="470" stroke="#111827" stroke-width="2" marker-end="url(#arrow)"/><text x="640" y="409" text-anchor="middle" font-family="monospace" font-size="12" fill="#374151">render/projection</text><text x="640" y="700" text-anchor="middle" font-family="monospace" font-size="13" fill="#374151">Derived from deterministic ASG + pattern analysis report. Projection cannot upgrade authority.</text></svg>
